<?xml version="1.0" encoding="UTF-8"?>
<svg id="Layer_1" data-name="Layer 1" xmlns="http://www.w3.org/2000/svg" xmlns:xlink="http://www.w3.org/1999/xlink" viewBox="0 0 1920 1080">
  <defs>
    <style>
      .cls-1 {
        fill: #ffffff;
      }

      .cls-2 {
        fill: #ffffff;
      }

      .cls-3 {
        fill: #ffffff;
      }

      .cls-4 {
        fill: #ffffff;
      }

      .cls-5 {
        fill: #ffffff;
      }

      .cls-6 {
        fill: #ffffff;
      }

      .cls-7 {
        fill: #ffffff;
      }

      .cls-8 {
        fill: #ffffff;
      }

      .cls-9 {
        fill: #ffffff;
      }

      .cls-10 {
        fill: #ffffff;
      }

      .cls-11 {
        fill: #ffffff;
      }
    </style>
    <linearGradient id="linear-gradient" x1="118.16" y1="468.11" x2="1793.95" y2="792.46" gradientUnits="userSpaceOnUse">
      <stop offset="0" stop-color="#fff504"/>
      <stop offset=".33" stop-color="red"/>
      <stop offset=".67" stop-color="#cf30e3"/>
      <stop offset="1" stop-color="#0c03ff"/>
    </linearGradient>
    <linearGradient id="linear-gradient-2" x1="123.53" y1="440.36" x2="1799.33" y2="764.71" xlink:href="#linear-gradient"/>
    <linearGradient id="linear-gradient-3" x1="135.72" y1="377.35" x2="1811.52" y2="701.7" xlink:href="#linear-gradient"/>
    <linearGradient id="linear-gradient-4" x1="139.79" y1="356.34" x2="1815.59" y2="680.69" xlink:href="#linear-gradient"/>
    <linearGradient id="linear-gradient-5" x1="148.19" y1="312.95" x2="1823.99" y2="637.3" xlink:href="#linear-gradient"/>
    <linearGradient id="linear-gradient-6" x1="148.78" y1="309.89" x2="1824.58" y2="634.24" xlink:href="#linear-gradient"/>
    <linearGradient id="linear-gradient-7" x1="153.58" y1="285.11" x2="1829.37" y2="609.45" xlink:href="#linear-gradient"/>
    <linearGradient id="linear-gradient-8" x1="152.4" y1="291.2" x2="1828.2" y2="615.54" xlink:href="#linear-gradient"/>
    <linearGradient id="linear-gradient-9" x1="132.51" y1="393.97" x2="1808.3" y2="718.32" xlink:href="#linear-gradient"/>
    <linearGradient id="linear-gradient-10" x1="112.13" y1="499.24" x2="1787.93" y2="823.59" xlink:href="#linear-gradient"/>
    <linearGradient id="linear-gradient-11" x1="146.59" y1="321.19" x2="1822.39" y2="645.54" gradientTransform="translate(-84.13 687.49) rotate(-45)" xlink:href="#linear-gradient"/>
  </defs>
  <g>
    <path class="cls-11" d="M382.57,451.99c11.07,0,20.71,1.96,28.92,5.87,8.21,3.92,14.79,10.16,19.76,18.76v-23.2h24.63v143.18h-24.63v-24.05c-5.15,8.59-11.88,14.99-20.19,19.19-8.3,4.2-18,6.3-29.07,6.3-9.35,0-18.23-1.96-26.63-5.87-8.4-3.91-15.8-9.21-22.19-15.89-6.4-6.68-11.45-14.41-15.18-23.2-3.72-8.78-5.58-18.13-5.58-28.06s1.86-19.28,5.58-28.06c3.72-8.78,8.78-16.51,15.18-23.19,6.39-6.68,13.84-11.98,22.34-15.89,8.49-3.91,17.51-5.87,27.06-5.87ZM340.48,525.01c0,5.92,1.15,11.6,3.44,17.04,2.29,5.44,5.39,10.26,9.31,14.46,3.91,4.2,8.54,7.5,13.89,9.88,5.34,2.39,10.98,3.58,16.9,3.58s11.79-1.24,17.04-3.72c5.25-2.48,9.83-5.77,13.74-9.88,3.91-4.1,7.02-8.88,9.31-14.32,2.29-5.44,3.44-11.12,3.44-17.04s-1.15-11.83-3.44-17.18c-2.29-5.34-5.44-10.12-9.45-14.32-4.01-4.2-8.64-7.49-13.89-9.88-5.25-2.39-10.84-3.58-16.75-3.58s-11.55,1.19-16.9,3.58c-5.35,2.39-9.98,5.68-13.89,9.88-3.91,4.2-7.01,8.97-9.31,14.32-2.29,5.35-3.44,11.08-3.44,17.18Z"/>
    <path class="cls-1" d="M473.06,453.42h28.35v71.88c0,11.07,1.53,19.86,4.58,26.34,3.05,6.49,6.59,11.36,10.6,14.61,4.01,3.25,8.06,5.35,12.17,6.3,4.1.96,7.2,1.43,9.31,1.43,4.2,0,8.63-1.1,13.32-3.29,4.68-2.19,8.97-5.39,12.89-9.59,3.91-4.2,7.16-9.31,9.74-15.32,2.58-6.01,3.87-12.84,3.87-20.47v-71.88h28.35v143.18h-28.35v-21.76c-4.77,7.64-10.93,13.46-18.47,17.47-7.54,4.01-17.23,6.01-29.07,6.01-8.4,0-16.13-1.63-23.19-4.87-7.06-3.24-13.13-7.97-18.18-14.17-5.06-6.2-8.98-13.84-11.74-22.91-2.77-9.06-4.15-19.42-4.15-31.07v-71.88Z"/>
  </g>
  <g>
    <path class="cls-4" d="M812.39,453.72h28v72.36c0,10.94,1.51,19.62,4.53,26.03,3.01,6.41,6.51,11.22,10.47,14.43,3.96,3.21,7.97,5.28,12.02,6.22,4.05.95,7.12,1.41,9.19,1.41,4.15,0,8.53-1.08,13.15-3.25,4.62-2.17,8.86-5.33,12.73-9.48,3.86-4.15,7.07-9.2,9.62-15.13,2.55-5.94,3.82-12.68,3.82-20.23v-72.36h28.01v142.8h-28.01v-21.5c-4.72,7.55-10.8,13.3-18.25,17.26-7.45,3.96-17.02,5.94-28.71,5.94-8.3,0-15.94-1.6-22.91-4.81-6.98-3.2-12.97-7.87-17.96-14-5-6.13-8.87-13.67-11.6-22.63-2.74-8.95-4.1-19.19-4.1-30.69v-72.36Z"/>
    <path class="cls-3" d="M954.74,571.34l18.1-19.8c3.02,4.15,6.22,7.45,9.62,9.9,3.39,2.45,7.73,4.67,13.01,6.65,5.28,1.98,11.69,2.97,19.24,2.97,2.45,0,5.47-.19,9.05-.57,3.58-.38,7.02-1.08,10.33-2.12,3.3-1.04,6.13-2.41,8.49-4.1,2.36-1.7,3.54-3.86,3.54-6.51,0-1.7-.47-3.35-1.41-4.95-.95-1.6-2.55-3.2-4.81-4.81-2.26-1.6-5.37-3.16-9.34-4.67-3.96-1.51-8.96-2.92-14.99-4.24-7.55-1.51-14.67-3.49-21.36-5.94-6.7-2.45-12.5-5.47-17.4-9.05-4.91-3.58-8.82-7.82-11.74-12.73-2.93-4.9-4.38-10.75-4.38-17.54,0-6.22,1.6-11.83,4.81-16.83,3.21-4.99,7.4-9.24,12.59-12.73,5.18-3.49,11.13-6.13,17.82-7.92,6.69-1.79,13.53-2.69,20.51-2.69,10.18,0,19.85,2.03,29,6.08,9.15,4.06,16.73,9.29,22.77,15.7l-17.26,20.65-.56-.28c-.95-.57-2.36-1.7-4.24-3.39-1.89-1.7-4.29-3.54-7.21-5.52-2.93-1.98-6.46-3.72-10.61-5.23-4.15-1.51-8.87-2.26-14.14-2.26-3.21,0-6.41.33-9.62.99-3.21.66-6.08,1.56-8.63,2.69s-4.58,2.5-6.08,4.1c-1.51,1.6-2.26,3.35-2.26,5.23,0,4.34,2.69,8.06,8.06,11.17s13.25,6.08,23.62,8.91c9.8,2.64,18.11,5.28,24.89,7.92,6.79,2.64,12.31,5.66,16.55,9.05,4.24,3.39,7.36,7.4,9.34,12.02,1.98,4.62,2.97,10.23,2.97,16.83,0,3.78-.9,7.97-2.69,12.59-1.8,4.62-4.72,8.91-8.77,12.87-4.06,3.96-9.53,7.31-16.41,10.04-6.89,2.73-15.42,4.1-25.6,4.1-12.07,0-22.16-1.32-30.27-3.96-8.11-2.64-14.71-5.61-19.8-8.91-5.09-3.3-8.77-6.37-11.03-9.19s-3.49-4.34-3.68-4.53Z"/>
    <path class="cls-5" d="M1084.81,480.53v-25.46h21.78v-31.4l28.01-11.03v42.43h44.41v25.46h-44.41v69.59c0,6.6,2.07,11.79,6.22,15.56,4.15,3.78,9.52,5.66,16.12,5.66,3.58,0,7.31-.66,11.17-1.98,3.86-1.32,7.5-3.49,10.89-6.51l16.69,16.41c-5.47,4.91-11.7,9.24-18.67,13.01-6.98,3.77-14.71,5.66-23.2,5.66-6.42,0-12.5-1.23-18.25-3.68-5.76-2.45-10.75-5.8-14.99-10.04-4.24-4.24-7.64-9.38-10.18-15.42-2.55-6.03-3.82-12.54-3.82-19.52v-68.74h-21.78Z"/>
    <path class="cls-10" d="M1265.01,453.94c9.8,0,19,1.89,27.58,5.66,8.58,3.78,16.08,8.91,22.49,15.42,6.41,6.51,11.46,14.1,15.13,22.77,3.68,8.68,5.52,18.01,5.52,28.01s-1.84,19.38-5.52,28.15c-3.68,8.77-8.73,16.41-15.13,22.91-6.41,6.51-13.91,11.65-22.49,15.42-8.58,3.77-17.78,5.66-27.58,5.66s-19-1.88-27.58-5.66c-8.58-3.77-16.08-8.91-22.49-15.42-6.41-6.51-11.46-14.14-15.13-22.91-3.68-8.77-5.52-18.15-5.52-28.15s1.84-19.33,5.52-28.01c3.68-8.67,8.72-16.27,15.13-22.77,6.41-6.51,13.91-11.64,22.49-15.42,8.58-3.77,17.77-5.66,27.58-5.66ZM1222.01,525.79c0,6.22,1.13,12.02,3.39,17.4,2.26,5.37,5.33,10.04,9.19,14,3.86,3.96,8.44,7.12,13.72,9.48,5.28,2.36,10.84,3.54,16.69,3.54s11.64-1.18,16.83-3.54c5.18-2.36,9.71-5.52,13.58-9.48,3.86-3.96,6.93-8.63,9.19-14,2.26-5.37,3.39-11.17,3.39-17.4s-1.13-11.74-3.39-17.11c-2.26-5.37-5.33-10.04-9.19-14-3.87-3.96-8.39-7.12-13.58-9.48-5.19-2.36-10.8-3.54-16.83-3.54s-11.41,1.18-16.69,3.54c-5.28,2.36-9.86,5.52-13.72,9.48-3.87,3.96-6.93,8.63-9.19,14-2.26,5.37-3.39,11.08-3.39,17.11Z"/>
    <path class="cls-7" d="M1352.35,454.79h28.01v19.8c5.28-7.54,11.6-13.01,18.95-16.41,7.36-3.39,15.74-5.09,25.18-5.09,7.73,0,15.09,1.13,22.07,3.39l-8.77,26.87c-4.91-1.51-9.53-2.26-13.86-2.26-5.66,0-10.99,1.04-15.98,3.11-5,2.08-9.48,4.91-13.44,8.49-3.96,3.59-7.17,7.78-9.62,12.59-2.45,4.81-3.96,10.04-4.52,15.7v75.53h-28.01v-141.73Z"/>
    <path class="cls-6" d="M1487.36,455.07l44.7,103.54,44.7-103.54h30.84l-90.24,212.17h-30.55l30.27-73.55-60.26-138.62h30.55Z"/>
  </g>
  <g>
    <rect class="cls-8" x="622.66" y="453.04" width="173.13" height="105.11" rx="52.56" ry="52.56"/>
    <path class="cls-2" d="M743.23,585.39c16.22,0,29.42,13.2,29.42,29.42,0,16.22-13.2,29.42-29.42,29.42h-68.02c-16.22,0-29.42-13.2-29.42-29.42,0-16.22,13.2-29.42,29.42-29.42h68.02M743.23,562.25h-68.02c-28.91,0-52.56,23.65-52.56,52.56,0,28.91,23.65,52.56,52.56,52.56h68.02c28.91,0,52.56-23.65,52.56-52.56,0-28.91-23.65-52.56-52.56-52.56h0Z"/>
  </g>
  <rect class="cls-9" x="775.96" y="429.17" width="23.7" height="32.25" transform="translate(545.62 -426.64) rotate(45)"/>
</svg>